<svg xmlns="http://www.w3.org/2000/svg" viewBox="0 0 50 50"><g fill="currentColor"><path d="M50.4 46.883c-9.168 0-17.023 7.214-17.023 16.387v.007l.09 71.37-2.303 16.992 31.313-8.319h77.841c9.17 0 17.024-7.224 17.024-16.396V63.27c0-9.17-7.85-16.383-17.016-16.387h-.008zm0 11.566h89.926c3.222.004 5.45 2.347 5.45 4.82v63.655c0 2.475-2.232 4.82-5.457 4.82h-79.54l-15.908 4.807.162-.938-.088-72.343c0-2.476 2.23-4.82 5.455-4.82z" transform="scale(.26458)"/><path d="M88.2 95.309H64.92c-1.601 0-2.91 1.236-2.91 2.746l.022 18.602-.435 2.506 6.231-1.881H88.2c1.6 0 2.91-1.236 2.91-2.747v-16.48c0-1.51-1.31-2.746-2.91-2.746z" transform="translate(-51.147 -81.516)"/><path d="M50.4 46.883c-9.168 0-17.023 7.214-17.023 16.387v.007l.09 71.37-2.303 16.992 31.313-8.319h77.841c9.17 0 17.024-7.224 17.024-16.396V63.27c0-9.17-7.85-16.383-17.016-16.387h-.008zm0 11.566h89.926c3.222.004 5.45 2.347 5.45 4.82v63.655c0 2.475-2.232 4.82-5.457 4.82h-79.54l-15.908 4.807.162-.938-.088-72.343c0-2.476 2.23-4.82 5.455-4.82z" transform="scale(.26458)"/><path d="M62.57 116.77v-1.312l3.28-1.459q.159-.068.306-.102.158-.045.283-.068l.271-.022v-.09q-.136-.012-.271-.046-.125-.023-.283-.057-.147-.045-.306-.113l-3.28-1.459v-1.323l5.068 2.319v1.413z" transform="matrix(1.45366 0 0 1.72815 -75.122 -171.953)"/><path d="M62.309 110.31v1.903l3.437 1.53.022.007-.022.008-3.437 1.53v1.892l.37-.17 5.221-2.39v-1.75zm.525.817 4.541 2.08v1.076l-4.541 2.078v-.732l3.12-1.389.003-.002a1.56 1.56 0 0 1 .258-.086h.006l.008-.002c.094-.027.176-.047.246-.06l.498-.041v-.574l-.24-.02a1.411 1.411 0 0 1-.231-.04l-.008-.001-.008-.002a9.077 9.077 0 0 1-.263-.053 2.781 2.781 0 0 1-.266-.097l-.004-.002-3.119-1.39z" transform="matrix(1.45366 0 0 1.72815 -75.122 -171.953)"/><path d="M69.171 117.754h5.43v1.278h-5.43Z" transform="matrix(1.44935 0 0 1.66414 -74.104 -166.906)"/><path d="M68.908 117.492v1.802h5.955v-1.802zm.526.524h4.904v.754h-4.904z" transform="matrix(1.44935 0 0 1.66414 -74.104 -166.906)"/></g></svg>
