<svg width="198" height="170" viewBox="0 0 198 170" fill="none" xmlns="http://www.w3.org/2000/svg">
<circle cx="103" cy="52" r="28" fill="#131928"/>
<path fill-rule="evenodd" clip-rule="evenodd" d="M99 96C125.51 96 147 74.5097 147 48C147 21.4903 125.51 0 99 0C72.4903 0 51 21.4903 51 48C51 74.5097 72.4903 96 99 96ZM131 52C131 67.464 118.464 80 103 80C87.5361 80 75.0001 67.464 75.0001 52C75.0001 49.1303 75.4318 46.3615 76.2338 43.7548C78.4288 48.6165 83.3194 52 89.0001 52C96.7321 52 103 45.732 103 38C103 32.3192 99.6166 27.4287 94.755 25.2337C97.3616 24.4317 100.13 24 103 24C118.464 24 131 36.536 131 52Z" fill="url(#paint0_linear_311_206)"/>
<path opacity="0.2" fill-rule="evenodd" clip-rule="evenodd" d="M131 52C131 67.464 118.464 80 103 80C87.864 80 75.5329 67.9897 75.017 52.9791C75.0057 53.318 75 53.6584 75 54C75 70.5686 88.4315 84 105 84C121.569 84 135 70.5686 135 54C135 37.4315 121.569 24 105 24C104.66 24 104.321 24.0057 103.983 24.0169C118.992 24.5347 131 36.865 131 52Z" fill="#131928"/>
<path fill-rule="evenodd" clip-rule="evenodd" d="M99 12C79.1177 12 63 28.1177 63 48C63 50.2091 61.2091 52 59 52C56.7909 52 55 50.2091 55 48C55 23.6995 74.6995 4 99 4C101.209 4 103 5.79086 103 8C103 10.2091 101.209 12 99 12Z" fill="url(#paint1_linear_311_206)"/>
<path fill-rule="evenodd" clip-rule="evenodd" d="M174.984 129.867V169.272H184.169V145.828C184.169 141.301 185.082 138.121 186.909 136.288C188.789 134.456 191.528 133.54 195.127 133.54H197.463V124C194.402 124 191.743 124.647 189.487 125.94C187.285 127.18 185.512 128.931 184.169 131.195V124.728H183.886L174.984 129.867Z" fill="white"/>
<path fill-rule="evenodd" clip-rule="evenodd" d="M145.573 130.117V169.272H154.758V145.828C154.758 141.301 155.671 138.121 157.498 136.288C159.377 134.456 162.117 133.54 165.716 133.54H168.052V124C164.99 124 162.332 124.647 160.076 125.94C157.874 127.18 156.101 128.931 154.758 131.195V124.814L145.573 130.117Z" fill="white"/>
<path fill-rule="evenodd" clip-rule="evenodd" d="M136.689 142.875C136.922 144.529 137.026 146.039 137 147.403L108.595 151.395L109.533 143.752L126.79 141.327C126.264 137.972 124.689 135.445 122.063 133.746C119.438 132.047 116.396 131.44 112.939 131.926C109.801 132.367 107.257 133.759 105.308 136.101C103.756 137.917 102.837 140.106 102.55 142.669C102.192 145.346 102.195 149.861 103.977 154.106C104.886 156.629 106.398 158.614 108.513 160.06C111.153 161.866 114.176 162.53 117.58 162.051C122.473 161.364 125.642 158.823 127.085 154.429L136.899 153.05C136.139 157.293 134.188 160.969 131.045 164.078C127.948 167.125 123.819 169.012 118.66 169.737C114.458 170.327 110.55 169.924 106.936 168.527C103.369 167.069 100.387 164.767 97.9924 161.62C95.6432 158.413 94.1498 154.541 93.5123 150.004C92.8747 145.468 93.2201 141.365 94.5485 137.695C95.9226 133.964 98.1273 130.933 101.163 128.601C104.251 126.262 107.949 124.79 112.258 124.185C116.407 123.601 120.231 123.989 123.731 125.348C127.23 126.706 130.117 128.913 132.39 131.968C134.656 134.97 136.089 138.605 136.689 142.875Z" fill="white"/>
<path fill-rule="evenodd" clip-rule="evenodd" d="M85.9214 142.875C86.1539 144.529 86.2575 146.039 86.2323 147.403L57.8266 151.395L58.765 143.752L76.0219 141.327C75.4961 137.972 73.9205 135.445 71.2951 133.746C68.6697 132.047 65.6284 131.44 62.171 131.926C59.0328 132.367 56.4892 133.759 54.5402 136.101C52.988 137.917 52.0687 140.106 51.7823 142.669C51.4236 145.345 51.4267 149.861 53.209 154.106C54.1182 156.629 55.6301 158.614 57.7448 160.06C60.3852 161.866 63.4075 162.53 66.8116 162.051C71.7051 161.364 74.8737 158.823 76.3174 154.429L86.131 153.05C85.3713 157.293 83.4199 160.969 80.2769 164.078C77.1796 167.125 73.0512 169.012 67.8917 169.737C63.6897 170.327 59.7819 169.924 56.1684 168.527C52.6006 167.069 49.6192 164.767 47.2243 161.62C44.8751 158.413 43.3818 154.541 42.7442 150.004C42.1066 145.468 42.452 141.365 43.7804 137.695C45.1546 133.964 47.3592 130.933 50.3945 128.601C53.483 126.262 57.1814 124.79 61.4898 124.185C65.6386 123.601 69.4629 123.989 72.9625 125.348C76.4621 126.706 79.3487 128.913 81.6222 131.968C83.8882 134.97 85.3213 138.605 85.9214 142.875Z" fill="white"/>
<path fill-rule="evenodd" clip-rule="evenodd" d="M19.2971 170C15.8057 170 12.6635 169.38 9.87044 168.141C7.13108 166.847 4.95571 165.122 3.34432 162.967C2.75103 162.153 2.25968 161.307 1.87026 160.427L10.3973 156.451C10.7212 157.974 11.5661 159.283 12.9321 160.38C14.5972 161.619 16.6651 162.239 19.1359 162.239C21.7142 162.239 23.7015 161.754 25.098 160.784C26.5483 159.76 27.2734 158.466 27.2734 156.903C27.2734 155.233 26.4678 153.993 24.8564 153.185C23.2987 152.376 20.801 151.487 17.3634 150.517C14.0332 149.6 11.3207 148.711 9.22587 147.849C7.13106 146.987 5.30483 145.666 3.74715 143.888C2.24318 142.109 1.49121 139.764 1.49121 136.854C1.49121 134.483 2.18946 132.327 3.586 130.387C4.98254 128.393 6.96992 126.83 9.54815 125.698C12.1801 124.566 15.188 124 18.5719 124C23.6209 124 27.6763 125.293 30.7379 127.88C32.6667 129.449 34.0397 131.379 34.8566 133.67L26.4587 137.586C26.1775 135.927 25.4017 134.578 24.1312 133.54C22.681 132.354 20.7204 131.761 18.2496 131.761C15.8326 131.761 13.9795 132.219 12.6904 133.135C11.4013 134.052 10.7567 135.264 10.7567 136.773C10.7567 137.959 11.1864 138.956 12.0458 139.765C12.9052 140.573 13.9526 141.22 15.188 141.705C16.4234 142.136 18.2497 142.702 20.6667 143.402C23.8895 144.265 26.5215 145.154 28.5625 146.07C30.6574 146.933 32.4567 148.226 33.9607 149.951C35.4647 151.675 36.2435 153.966 36.2972 156.822C36.2972 159.356 35.599 161.619 34.2024 163.613C32.8059 165.608 30.8185 167.17 28.2403 168.302C25.7158 169.434 22.7347 170 19.2971 170Z" fill="white"/>
<defs>
<linearGradient id="paint0_linear_311_206" x1="99" y1="-2.07126e-06" x2="168.5" y2="69.5" gradientUnits="userSpaceOnUse">
<stop stop-color="#C395FC"/>
<stop offset="1" stop-color="#4F65F5"/>
</linearGradient>
<linearGradient id="paint1_linear_311_206" x1="79" y1="8" x2="79" y2="48" gradientUnits="userSpaceOnUse">
<stop stop-color="white" stop-opacity="0.4"/>
<stop offset="1" stop-color="white" stop-opacity="0"/>
</linearGradient>
</defs>
</svg>
